# xmcd
#
# Track frame offsets: 
#        150
#        10333
#        46670
#        68582
#        81763
#        93266
#        109610
#        122401
#        135624
#        148625
#        161239
#        173983
#        192527
#        220467
#        233310
#        246575
#        260409
#        272357
#        285622
#        298177
#
# Disc length: 4171 seconds
#
# Revision: 0
# Processed by: cddbd v1.5.2PL0 Copyright (c) Steve Scherf et al.
# Submitted via: ExactAudioCopy v1.0b1
#
DISCID=21104914
DTITLE=Various Artist - Original Blues Hits
DYEAR=2001
DGENRE=Blues
TTITLE0=Mean Red Spider - Muddy Waters
TTITLE1=Roll Me Baby - Big Joe Turner
TTITLE2=The Thrill Is Gone - B.B. King
TTITLE3=Dust My Broom - Elmore James
TTITLE4=Gion' Home - Muddy Waters
TTITLE5=The Other Night Blues - B.B. King
TTITLE6=I'm A Black Woman's Man - Brownie Mcghee
TTITLE7=Jailhouse Blues - Sleepy John Estes
TTITLE8=Good Morning Blues - Leadbelly
TTITLE9=Traveling Riverside Blues - Robert Johnson
TTITLE10=Hobo Blues - John Lee Hooker
TTITLE11=Gambler's Blues - Memphis Slim
TTITLE12=Payin' The Cost To Be The Boss - B.B. King
TTITLE13=Goodbye Now - Brownie Mcghee
TTITLE14=Black Train Blues - Bukka White
TTITLE15=I Love My Wiskey - Big Bill Bronzy And His Fat Fo
TTITLE16=Have To Let You Go - Lightning Hopkins
TTITLE17=Stop Breakin Down - Sonny Boy Williamson
TTITLE18=My Mind Is Rambliin' - Howlin' Wolf
TTITLE19=Gonna Lay My Body Down - Sonny Terry and Brownie Mcghee
EXTD=
EXTT0=
EXTT1=
EXTT2=
EXTT3=
EXTT4=
EXTT5=
EXTT6=
EXTT7=
EXTT8=
EXTT9=
EXTT10=
EXTT11=
EXTT12=
EXTT13=
EXTT14=
EXTT15=
EXTT16=
EXTT17=
EXTT18=
EXTT19=
PLAYORDER=
